<svg xmlns="http://www.w3.org/2000/svg" viewBox="0 0 280.16 445.83"><defs><style>.cls-1{fill:#c7ac65;}</style></defs><g id="Layer_2" data-name="Layer 2"><g id="Layer_1-2" data-name="Layer 1"><path class="cls-1" d="M277.41,394.61l-30.81-66a28.17,28.17,0,0,0-33.53-15.1l-36.63,9.64c-5.27-4.54-22.13-22.68-52.19-87.06C94,171.34,91,147,91,140.21l30.94-21.92a28.33,28.33,0,0,0,10-35.4l-30.81-66A29.28,29.28,0,0,0,58.62,4.7L40.2,16.62C23.84,26.72,12.31,42.07,5.93,62.25.32,80-1.32,101.56,1.06,126.38c4,41.75,19.76,93.78,44.38,146.51,21.31,45.64,47.15,87,72.75,116.39,32.66,37.52,64.8,56.55,95.53,56.55a73.08,73.08,0,0,0,24.92-4.41L259.52,435a29.28,29.28,0,0,0,17.89-40.37"/></g></g></svg>